<svg xmlns="http://www.w3.org/2000/svg" viewBox="0 0 32 32"><path fill="currentColor" d="M3.531 15.573c-1.385-2.417-1.667-4.672-.682-6.375c1.318-2.286 4.625-3.083 8.807-2.323c.24.036.406.266.365.505a.43.43 0 0 1-.521.339c-3.865-.703-6.813.01-7.906 1.906c-.807 1.396-.568 3.344.682 5.521a.43.43 0 0 1-.151.604a.43.43 0 0 1-.594-.177m19.891-8.094c2.448.031 4.208.792 5.005 2.167c1.094 1.891.24 4.792-2.292 7.781a.43.43 0 0 0 .031.625c.188.161.474.13.62-.068c2.74-3.234 3.698-6.49 2.38-8.766c-.969-1.677-3.01-2.563-5.729-2.599a.43.43 0 0 0-.458.427a.425.425 0 0 0 .448.432zm-2.469 20.318a.43.43 0 0 0-.589.146c-1.245 2.073-2.776 3.198-4.349 3.198c-2.188 0-4.276-2.193-5.599-5.891a.429.429 0 1 0-.807.292C11.036 29.537 13.38 32 16.015 32c1.917 0 3.693-1.307 5.083-3.615a.43.43 0 0 0-.146-.589zm9.807-3.458c-.005 1.672-1.891 2.635-3.25 1.667c-3.271 1.927-9.526.948-15.411-2.453c-2.505-1.448-4.703-3.188-6.396-5.047a.433.433 0 0 1 .021-.62a.43.43 0 0 1 .615.042c1.63 1.792 3.755 3.479 6.187 4.88c5.557 3.208 11.406 4.161 14.396 2.542a2.053 2.053 0 0 1 1.26-3a2.052 2.052 0 0 1 2.578 1.99zm-25.416 0c.005 1.589-1.724 2.578-3.094 1.771c-1.37-.802-1.344-2.797.047-3.563c-.313-3.839 3.719-8.979 9.813-12.5c2.531-1.458 5.167-2.495 7.641-3.026c.531-.073.693.688.182.839c-2.385.51-4.938 1.516-7.396 2.932c-5.734 3.313-9.526 8.089-9.396 11.505c.052-.005.099-.01.151-.01c1.135 0 2.052.922 2.052 2.052m8.62-22.287c.094-2.635 4.01-2.635 4.104 0c0 .031-.005.063-.005.089c3.401 1.76 5.76 7.75 5.76 14.672c0 2.849-.396 5.578-1.141 7.948c-.063.234-.307.375-.542.302s-.359-.328-.276-.557c.714-2.286 1.099-4.932 1.099-7.693c0-6.521-2.167-12.125-5.125-13.818c-.99 1.911-3.88 1.208-3.875-.943zm1.739 13.307c-.802.177-1.313.964-1.141 1.766s.964 1.313 1.766 1.141c1.938-.417 1.307-3.323-.625-2.906z"/></svg>