<?xml version="1.0" encoding="utf-8"?>
<!-- Generator: Adobe Illustrator 23.1.0, SVG Export Plug-In . SVG Version: 6.00 Build 0)  -->
<svg version="1.1" id="Layer_1" xmlns="http://www.w3.org/2000/svg" xmlns:xlink="http://www.w3.org/1999/xlink" x="0px" y="0px"
	 viewBox="0 0 161.93 86.82" style="enable-background:new 0 0 161.93 86.82;" xml:space="preserve">
<style type="text/css">
	.st0{fill:#232628;}
	.st1{fill:#E62E3A;}
	.st2{fill:none;}
</style>
<g>
	<path class="st0" d="M116.93,0.68H103.5V17.5h13.43c15.24,0,25.53,10.53,25.53,25.53v0.24c0,15-10.28,25.29-25.53,25.29H103.5
		v16.82h13.43c26.62,0,45-18.51,45-42.34v-0.24C161.93,18.95,143.54,0.68,116.93,0.68"/>
	<path class="st1" d="M8.11,0.68h52.02v16.33H24.07l-0.97,14.64c3.39-0.85,6.41-1.45,11.13-1.45c16.7,0,29.64,7.99,29.64,27.22
		c0,18.03-12.7,29.4-32.18,29.4c-13.55,0-23.47-4.84-31.7-12.7l11.25-13.43c6.41,5.81,12.7,9.19,20.2,9.19
		c8.71,0,14.15-4.23,14.15-11.86c0-7.38-5.93-11.61-15-11.61c-5.32,0-10.16,1.45-14.16,3.15L5.69,42.42L8.11,0.68z"/>
	<polygon class="st1" points="86.14,0 98.84,0 98.84,85.29 80.45,85.29 80.45,18.87 65.69,22.5 61.82,7.26 	"/>
</g>
<rect x="144.06" y="110.12" class="st2" width="566.93" height="113.39"/>
</svg>
