<svg xmlns="http://www.w3.org/2000/svg" viewBox="0 0 32 32"><path fill="currentColor" d="M18.505 16.907c-.532 0 .109.265.801.375c.188-.136.36-.297.521-.443c-.432.099-.88.12-1.323.068zm2.855-.71c.307-.437.536-.916.624-1.411c-.077.359-.265.667-.437.973c-1 .625-.093-.359 0-.744c-1.068 1.344-.145.796-.187 1.181zm1.041-2.728c.068-.964-.188-.667-.265-.297c.093.057.171.667.265.297M16.505.412c.265.057.599.093.563.161c.307-.068.369-.136-.573-.161zm.563.161l-.204.041l.188-.016V.573zm8.828 13.255c.025.855-.271 1.265-.511 2l-.464.24c-.375.719.037.463-.228 1.036c-.589.521-1.787 1.631-2.163 1.735c-.265 0 .188-.333.256-.453c-.787.536-.641.803-1.828 1.136l-.037-.084c-2.963 1.391-7.067-1.359-7-5.12c-.041.229-.093.177-.161.271a4.73 4.73 0 0 1 2.667-4.667a4.48 4.48 0 0 1 4.975.641a4.46 4.46 0 0 0-3.631-1.735c-1.573.011-3.036 1.011-3.531 2.093c-.803.505-.891 1.959-1.24 2.215c-.479 3.463.88 4.957 3.172 6.719c.359.249.109.281.161.463a6.25 6.25 0 0 1-2.041-1.547c.307.443.629.88 1.068 1.213c-.735-.239-1.693-1.729-1.975-1.796c1.24 2.213 5.041 3.891 7.016 3.067a8.3 8.3 0 0 1-3.109-.375c-.437-.213-1.027-.683-.932-.76A7.74 7.74 0 0 0 24.229 19c.583-.469 1.24-1.255 1.421-1.265c-.265.427.057.213-.156.583c.584-.957-.265-.396.609-1.651l.323.437c-.12-.797.985-1.755.88-3.011c.256-.4.267.401 0 1.292c.387-.984.105-1.131.199-1.948c.109.271.24.563.307.844c-.239-.932.267-1.599.376-2.136c-.12-.067-.376.401-.428-.708c0-.489.136-.265.188-.369c-.109-.068-.349-.428-.511-1.147c.109-.176.297.439.459.453c-.109-.563-.271-1-.271-1.443c-.453-.905-.156.136-.532-.401c-.453-1.452.401-.333.453-.984c.719 1.027 1.12 2.615 1.308 3.281a13 13 0 0 0-.657-2.349c.215.095-.343-1.651.281-.495a10.4 10.4 0 0 0-4.88-5.848c.24.224.563.515.443.557c-1-.6-.828-.641-.973-.891c-.813-.333-.871.025-1.417 0c-1.547-.829-1.839-.735-3.249-1.272l.068.308c-1.032-.333-1.204.135-2.308 0c-.068-.052.36-.188.703-.24c-.984.136-.932-.187-1.905.041c.229-.171.479-.28.735-.427c-.797.052-1.923.469-1.573.093c-1.317.6-3.651 1.428-4.959 2.652l-.041-.292c-.599.719-2.615 2.145-2.771 3.079l-.177.041c-.308.531-.505 1.135-.76 1.683c-.396.692-.6.265-.532.369c-.801 1.631-1.197 3-1.547 4.135c.24.36 0 2.199.093 3.677c-.4 7.281 5.12 14.365 11.147 16c.896.308 2.197.308 3.323.333c-1.323-.369-1.495-.197-2.776-.651c-.932-.427-1.136-.932-1.787-1.505l.265.464c-1.292-.453-.76-.557-1.812-.891l.281-.36c-.417-.041-1.109-.708-1.297-1.083l-.453.015c-.547-.667-.839-1.161-.812-1.547l-.145.267c-.172-.281-2.027-2.532-1.068-2.011c-.172-.161-.412-.271-.667-.735l.187-.229c-.463-.583-.853-1.359-.828-1.599c.271.317.428.401.604.443c-1.176-2.896-1.239-.161-2.135-2.937l.197-.027c-.129-.213-.239-.453-.344-.677l.079-.801c-.839-.984-.24-4.136-.12-5.865c.095-.724.708-1.468 1.172-2.64l-.276-.052c.532-.948 3.12-3.828 4.317-3.683c.573-.735-.119 0-.239-.187c1.281-1.319 1.681-.933 2.531-1.172c.937-.537-.797.213-.359-.204c1.604-.396 1.135-.932 3.228-1.129c.215.129-.52.187-.692.343c1.333-.651 4.197-.489 6.079.365c2.171 1.025 4.613 4.011 4.708 6.839l.104.025c-.052 1.136.177 2.428-.224 3.615l.265-.563zM12.719 17.64l-.068.376c.349.463.631.968 1.068 1.344c-.317-.625-.557-.881-1-1.735zm.828-.041c-.187-.197-.292-.453-.411-.692c.104.427.343.801.572 1.172zm14.589-3.172l-.095.199a9.4 9.4 0 0 1-.921 2.948a8.9 8.9 0 0 0 1-3.147zM16.599.161c.36-.135.88-.068 1.265-.161c-.489.041-.984.068-1.463.136l.197.025zM4.016 6.855c.088.76-.579 1.067.145.557c.401-.881-.145-.24-.135-.557zm-.844 3.546c.161-.521.203-.828.265-1.12c-.464.583-.224.703-.265 1.104z"/></svg>