<svg xmlns="http://www.w3.org/2000/svg" viewBox="0 0 32 32"><path fill="currentColor" d="M13.276.131q-.846.001-1.667.151C5.864 1.334 1.817 6.307 1.473 9.585c-.167 1.604.704 2.807 1.177 3.337c1.297 1.439 3.871 2.532 5.527 3.443c-2.396 2.037-3.495 3.037-4.573 4.167C1.984 22.236.849 24.1.844 25.439c0 .432-.073 1.808.489 2.896c.208.407.812 1.771 2.62 2.792c1.156.651 2.801.891 4.411.661c4.991-.713 11.672-4.943 16.439-8.885c3.041-2.511 5.26-4.943 5.9-6.141c.516-.968.579-2.703.276-3.791c-.853-3.089-7.785-9.423-13.452-11.969a10.3 10.3 0 0 0-4.251-.869zm-.011.088a9.8 9.8 0 0 1 4.423 1C22.265 3.47 30 9.792 30.568 12.97c.708 3.932-13.136 14.572-21.552 16.233c-3.271.641-6.052.819-7.323-2.635c-1.105-2.989 1.031-5.177 4.176-8.052a124 124 0 0 1 3.917-3.412c.083-.088-7.547-2.719-7.792-5.74C1.745 6.255 6.661.527 12.953.229q.156-.01.312-.011zm-.145.688a7 7 0 0 0-.672.041c-3.093.323-3.683.724-6.484 2.844c-.937.708-2.667 2.437-3.109 4.489c-.167.781.031 1.453.593 1.927c1.797 1.511 4.812 2.74 7.287 3.928c.724.348.244.979-.923 1.989c-2.948 2.552-6.932 5.656-7.213 8.02c-.129 1.115.256 2.631 1.604 3.407c1.584.907 4.865.317 7.057-.5c3.204-1.192 7.412-3.823 10.751-6.412c3.468-2.692 6.697-6.109 6.859-6.667c.199-.681.177-1.317-.203-2.041c-.593-1.14-1.385-1.989-2.24-2.937c-2.291-2.411-4.713-4.536-7.609-6.161c-1.9-1.063-3.588-1.959-5.697-1.927zm1.416 4.79c.724 0 1.557.229 2.453.663c2.235 1.077 4.527 3.916-.02 5.547c-1.235.448-5.157-1.089-5.037-3.183c.115-2.079 1.131-3.027 2.604-3.027m.381 1.808c-.423 0-.761.104-.923.349c-.735 1.14-.396 1.948.287 2.463c.249-.604 2.849.057 2.839.625c.025-.016.052-.025.073-.041c2.255-1.699-.625-3.385-2.276-3.396"/></svg>