<svg xmlns="http://www.w3.org/2000/svg" viewBox="0 0 32 32"><path fill="currentColor" d="M6.76 18.578a.82.82 0 0 0-.688.448c-.156.281-.521.323-.693.271c-.281-.094-.641-.161-.99.089c-.354.25-.729.063-.661-.396c.068-.453.229-.859.667-1.109c.953-.542.286-.922.807-1.474c.526-.552.411-.719.391-1.469c-1.766-.266-2.771-.776-3.885-2.172C.588 11.37.156 10.219.041 8.464c-.12-1.755-.016-2.891.74-4.344c.76-1.453 1.557-2.151 2.938-2.88S6.453.339 7.703.36c1.255.021 2.089.109 2.792.516c.708.406 1.354.911 1.766.911c.323.021.635-.068.896-.255c.057 1.359-1.167 1.479-2.26 1.505c-1.094.031-1.766-.422-2.776-.255c-1.005.172-2.656.63-3.458 2.026c-.802 1.401-.833 1.896-.766 3.068s1.078 2.047 1.646 2.057c.573.01.698-.156 1.198-.479c.5-.328 3.047-3.479 3.911-4.188c.87-.708 1.729-.927 2.656-.938s1.161.021 1.906.328c.75.302 1.208.87 1.813 1.214c.302-.182.5-.453.776-.661c1.016-.734 1.536-.938 2.74-.823c.688.073 1.557.464 2.078.917c.922.807 1.688 1.922 2.302 2.771c.484.667 1.047 1.458 1.859 1.703c.875.271 1.542-.87 1.641-1.505c.057-.359.125-.672.125-1.068s-.036-.875-.151-1.286a4.7 4.7 0 0 0-.521-1.156c-.344-.557-.906-1.135-1.49-1.432c-.328-.167-1.099-.469-1.589-.479c-.599-.016-1.052.188-1.604.224c-.667.047-1.859.193-2.38-.318c-.333-.328-.375-.552-.432-.974c.146.12.354.198.536.214c.417.036.807-.302 1.146-.505c.281-.161.672-.453 1.036-.599c.938-.38 2.089-.37 3.078-.266c.797.078 1.828.432 2.521.828c.703.396 1.375 1.063 1.87 1.693c.62.792.958 1.469 1.182 2.458c.286 1.26.37 3.151.021 4.396c-.276.979-1.182 2.484-1.958 3.219c-.76.729-1.646 1.083-2.646 1.276c.042.198.042.385.094.552c.078.24.219.5.505.417c.115-.031.182-.063.328.073c.156.135.078.646-.354.88c-.219.115-.443.141-.792.151a7.3 7.3 0 0 1-1.271-.063c-.375-.063-.599-.365-1.021-.411c-.646-.073-1.141-.542-1.661-.875c-.214-.135-.286-.135-.411-.208c.068.203.156.417.203.62c.042.193.026.38.047.536c.026.161.068.281.094.411c.104.094.135.234.313.276c.172.047.443-.021.62-.047c.182-.026.302-.12.438-.094c.141.026.276.13.391.219c.12.094.219.109.313.339c.094.24.182.719.193 1.036q.025.483-.115.865c-.14.382-.182.365-.438.62c-.255.25-.677.62-1.094.88c.078.109.109.214.234.339c.12.125.365.26.474.391c.115.13.172.224.172.37a.77.77 0 0 1-.125.5c-.297.396-.641.469-1.068.656c.073.443.13.76.026 1.208c-.042.182-.135.594-.359.698s-.656.052-.932.099c-.271.042-.427.083-.641.125c-.13.188-.318.396-.385.563c-.068.172-.047.229.01.401c.052.172.245.417.297.625c.052.198.068.411.016.615s-.156.385-.307.531c-.172.177-.51.318-.677.458c-.167.151-.339.167-.292.406c.063.328.547.859.896.99c.245.073.51.052.74-.052c-.016.276-.26.469-.417.656c.427-.125.844-.359 1.135-.672c-.089.271-.396.708-.859 1.089c-.458.38-.458.307-.688.458c.417.083.807.063 1.13.005a2.4 2.4 0 0 1-1.823.198c-.349-.083-.667-.401-1.089-.62c.042.161.073.349.25.51c.182.156.443.245.729.375c-.359-.036-.745-.047-1.099-.125c-.266-.063-.443-.125-.635-.219s-.339-.234-.51-.354c.078.156.104.344.245.469c.135.13.365.182.547.266c-.188-.005-.375.042-.573-.01a1.5 1.5 0 0 1-.589-.281c-.214-.156-.417-.333-.594-.526s-.396-.443-.464-.62c-.063-.177.042-.297.063-.448c-.12.078-.271.125-.365.24s-.177.219-.135.422s.229.453.365.677c-.396-.323-.615-.448-.708-.833c-.089-.365.135-.693.307-.969c.089-.135.219-.266.297-.396c-.182-.172-.38-.323-.531-.521s-.219-.469-.37-.656c-.156-.188-.37-.307-.547-.464c.156.344.422.766.479 1.026c.057.266-.068.432-.161.578c-.094.141-.245.177-.391.26c-.146.089-.37.021-.453.151c-.089.13-.109.328-.031.458l.344.531a1.7 1.7 0 0 1-.438-.375c-.099-.13-.245-.25-.266-.422s-.031-.328.083-.484c.115-.156.427-.208.563-.328c.141-.12.219-.198.208-.349c-.005-.156-.156-.266-.286-.365c-.401-.302-.906-.573-1.245-.932a1.24 1.24 0 0 1-.318-.505c-.042-.141 0-.25.094-.422s.417-.406.458-.589c.042-.188-.125-.229-.271-.297c-.151-.063-.432.036-.568-.078s.042-.354-.115-.49c-.156-.13-.51-.057-.693-.198a.97.97 0 0 1-.318-.526a1.1 1.1 0 0 1-.031-.583c.042-.151.172-.177.25-.255c.078-.073.146-.135.042-.255c-.099-.115-.443.005-.635-.141c-.198-.146-.078-.505-.219-.656c-.135-.146-.38-.089-.516-.141c-.125-.047-.177.12-.255-.146c-.083-.26-.083-1.063-.193-1.359c-.104-.297-.318-.021-.411-.313c-.104-.297-.005-.766-.052-1.214l-.198-1.208c-.698.469-1.156.615-1.906.745c-.063 1.833-.234 2.911.391 4.943c.62 2.026 1.875 3.224 3.573 4.943c-2.24-1.677-3.307-3.042-3.974-4.786c-.672-1.75-.542-3.208-.479-4.885zm11.896-.739c.172.01.38.052.5.13c.12.083.25.146.359.25c.276.286.479.62.573 1.005c.057.25.063.563.083.854c-.083-.266-.135-.547-.255-.786c-.188-.38-.5-.75-.896-.917a.45.45 0 0 0-.286-.036c.031.057.083.099.089.177c0 .078-.016.234-.151.297c-.214.104-.453.031-.62-.115a.55.55 0 0 1-.135-.609c.104-.26.5-.26.74-.25zm-2.161-.365c.021-.443.177-.813.578-1.026c.245-.141.521-.24.802-.286c.276-.036.953-.01 1.359.177c.307.135.521.359.797.521c.271.161.464.271.724.453c.401.281.635.583.911.766c.135.089.318.078.5.13c-.141.042-.318.089-.469.042a2.1 2.1 0 0 1-.583-.354a4 4 0 0 0-.661-.479c-.167-.094-.438-.208-.625-.328c-.177-.12-.49-.375-.667-.464a2.2 2.2 0 0 0-.865-.167c-.344.01-.839.068-1.099.302c-.26.245-.359.448-.302.755c.099-.109.167-.255.26-.339c.203-.177.438-.182.693-.151c.286.036.432.203.526.474c-.063-.042-.182-.146-.271-.182a.66.66 0 0 0-.583.057c-.24.135-.177.323-.208.531c-.016.099-.052.177-.078.266a.56.56 0 0 1-.245-.13c.005.099-.01.188.01.297s.073.245.115.365c-.172-.167-.344-.323-.448-.536a1.4 1.4 0 0 1-.172-.693zm.291-3.198c.12-.182.156-.458.229-.688c-.026.286.031.604-.109.813s-.391.172-.589.234c.156-.12.344-.177.469-.359m-2.942 4.271c.156-.13.583-.026.901-.005l-.688.177c-.021.083-.01.167-.063.234s-.151.089-.229.141c.01-.208-.083-.417.078-.547zm2.245-8.87c.188.099.427.24.599.24c.161.005.208-.104.307-.172c.151.505.333 1.063.599 1.521c.109.193.177.104.266.297c.083.193.12.589.198.839c.078.245.182.427.276.641c-.229-.333-.531-.755-.667-1.031c-.13-.276-.047-.297-.151-.557c-.104-.266-.318-.672-.479-1.01c-.115.016-.25.036-.339.01c-.083-.031-.073-.125-.151-.182s-.208-.036-.318-.13c-.109-.094-.135-.292-.141-.464zm-1.026 2.5c.182-.016.401.031.568.021c.167-.005.286-.052.432-.078c-.026-.25 0-.714-.234-.885c-.151-.104-.771-.026-.932.01c-.375.078-.807.302-1.167.438c.344-.24.641-.464 1.057-.583c.25-.073.828-.172 1.083-.104c.12.031.141.083.214.182c.24.339.24.63.302 1.031c.063.094.13.156.182.255q.079.189.089.385c-.063-.089-.021-.203-.198-.271c-.177-.073-.448-.01-.688.016c.172.13.26.25.266.51c.01.313-.255.536-.531.557c-.38.031-.578-.052-.729-.38c-.068-.141-.021-.313-.026-.453c-.458.031-.453.016-.786.297c.182.266.297.417.599.578c.167.089.359.177.568.214s.552.073.776.036a.82.82 0 0 0 .505-.25c.161-.146.177-.365.24-.536a1.6 1.6 0 0 1-.094.495c-.188.359-.505.469-.891.469c-.365 0-.818-.083-1.161-.224c-.276-.115-.729-.432-.833-.714c-.078-.188-.016-.422-.026-.635c.38-.25.474-.188.922-.26c.188-.036.318-.104.495-.12zm-2.204-1.703c.005-.156.026-.151.036-.224c-.344-.094-.479.13-.682.547c-.078.156 0 .25-.083.349c-.078.104-.214.089-.344.188s-.26.286-.385.391c-.25.208-.594.333-.891.474c.203-.146.594-.37.719-.583c.068-.115.057-.328.161-.432c.104-.099.141-.172.271-.198c.135-.026.083-.182.125-.307c.042-.12.13-.208.219-.333c.094-.125.208-.307.391-.375c.177-.068.464.005.599-.031c.135-.042.057-.141.156-.203c.099-.057.292-.031.427-.094c.234-.115.349-.302.49-.505c.021.438.016.75-.141 1.161c-.177.458-.354.734-.854 1.016c-.172.099-.344.13-.49.182c.083-.115.203-.161.25-.339c.047-.182.016-.536.026-.682zm8.079 2.12c-.24.021-.292-.016-.484.12l.307.484c-.005-.318.026-.38.177-.604m-.62-.229c.328-.135.615-.25.974-.276c.141-.01.365.01.51.021c.125-.182.281-.323.339-.531c.036-.141.021-.781-.052-.948c-.193-.479-.385-.5-.656-.776c-.198-.203-.203-.51-.266-.854c-.021-.125-.083-.281-.109-.411a5.3 5.3 0 0 0-1.146-.063c.198-.188.391-.359.448-.646a1.3 1.3 0 0 0-.151-.891c-.161-.255-.422-.479-.661-.688c-.234-.208-.578-.38-.802-.552c.292-.099.594-.255.88-.313c.745-.141 1.391.078 2.109.516c.422.25.766.49 1.203.953c.438.458.979 1.297 1.406 1.797c.422.5.766.891 1.135 1.193c.37.297.708.385 1.057.573l.552.583l.443-.552l.714.083l.151-.802l.651-.182l-.104-1.083l.474-.333l-.359-.672l.359-.74l-.469-.839l.182-.807l-.542-.469l-.073-.859l-.76-.286l-.302-.75l-.854-.01l-.417-.557l-.578.042l-.635-.073l-.359-.26l-.531.344l-.635-.328l-1.26.479l.823-.719l.854-.135l.651-.167l.885.286l.776-.193l.75.443l.797-.042l.391.698l.786.089l.427.776l.495.271l.135.995l.443.422l-.198.87l.521.661l-.484.703l.521.443l-.667.589l.677.708l-.818.266l.531.755l-.672.12l.438.828l-.75-.01l.38.62l-.828-.099l.198.896l-.625-.547l-.208 1.083l-.432-.776l-.234.969l-.526-.714l.016 1.021l-.589-.917c.12.521.099 1.089.438 1.578c1.063-.141 1.75-.411 2.563-1.188c.734-.714 1.62-2.193 1.859-3.135c.271-1.068.281-3.042.01-4.135c-.255-1.047-.594-1.552-1.193-2.406c-.573-.609-1.135-1.255-1.865-1.688C27.387.976 26.022.804 24.804.82a4.4 4.4 0 0 0-1.531.286c-.703.255-1.266.818-1.984 1.094c-.234.089-.417.089-.604-.005c.182.359.375.521.828.651c.323.094 1.099.036 1.635-.016c.573-.052.87-.224 1.651-.214c.76.016 1.365.302 1.693.49c.682.391 1.172.823 1.599 1.51c.229.375.396.797.51 1.229s.161.917.172 1.344c.01.422-.026.802-.13 1.182c-.24.891-.776 1.802-1.875 1.661c-.672-.083-1.682-1.349-2.026-1.813c-.688-.932-1.391-1.969-2.25-2.745a3.45 3.45 0 0 0-1.948-.865c-1.323-.12-1.719.13-2.714.953c.203.063.401.099.609.193c.458.208.88.479 1.25.823c.385.359.557.589.573 1.104c.01.344-.271.62-.531.865c-.156.151-.37.292-.495.411c-.172.156-.38.328-.167.573c.078.094.219.167.333.255c.188.135.104.646-.141.786a.82.82 0 0 1-.953-.083c.328-.042.536-.089.526-.359c0-.151-.198-.281-.396-.37c-.464-.214-.818-.182-1.281-.516c-.474-.339-.479-.526-.609-1.052c-.224.021-.432.026-.74.125c-.302.099-.635.339-.911.401c-.693.146-.828.104-1.208.01c-.667-.177-1.536.12-2.401.396c-.141.047-.724 0-1.115.135A7.3 7.3 0 0 0 8.23 10.4c-.74.625-1.714 2.49-2.266 4.635c-.057.651.13 1.089-.281 1.406c-.411.323-.401 1.135-.542 1.365c-.135.229-.297.125-.599.448c-.297.323-.448.271-.443.875c.26-.167.635-.365.969-.38c.292-.01.292.375 1.047-.365c.401-.401 1.172-.411 1.708-.589c.536-.172 1.5-.536 2.469-1.615c.964-1.078 1.427-2.219 1.615-3.859c.026.286.078.615-.042 1.417c-.13.807-.396 1.708.172 2.792l.349.672c-.208-.286-.62-.75-.745-1.083l-.281-.771c-.641 1-.786 1.182-1.672 1.896c-.036.448-.047.911.099 1.339s-.083.917.026 1.198s.365.12.448.406c.089.281-.042.844.089 1.12s.448.109.604.203c.151.089.203.208.286.328c.083.115-.031.396.135.484s.427.016.604.099c.172.089.198.297.161.484c-.047.188-.229.271-.313.464a.48.48 0 0 0 .026.495c.099.177.318.271.531.359c.219.089.526.036.75.161c.224.12.427.365.542.542a.7.7 0 0 1 .146.484a1.4 1.4 0 0 1-.182.578c-.099.177-.318.396.026.74c.339.339.328.193.526.417c-.026-.385-.182-.693-.068-.984c.12-.292.464-.344.646-.469c.188-.135.292-.313.432-.464c0 .198.021.411 0 .557c-.047.302-.135.578.318.625c.203.021.396-.109.609-.188c-.109.198-.307.359-.339.599c-.036.26.026.526.177.745c.161.24.453.417.661.557c.214.141.328.151.49.229c.005.234-.042.484-.016.708s.099.422.229.604c.13.188.333.292.531.427c-.109-.25-.323-.484-.323-.745c.005-.266.083-.448.339-.682s.849-.432 1.13-.656a1.37 1.37 0 0 0 .474-.583c.099-.219.073-.573.094-.771c.094.276.104.365.135.651s-.167.693-.25.906c.302-.141.547-.391.677-.698c.078.047.042.167.068.401c.125-.125.266-.219.391-.333c.125-.12.26-.219.323-.385c.063-.161.036-.333-.01-.521c-.047-.193-.255-.411-.37-.62c-.115-.203.021-.406.01-.656c-.224-.036-.417-.156-.682-.115c-.255.036-.557.328-.828.333c-.26 0-.417-.25-.635-.318s-.438-.057-.661-.094c.281-.266 1.365-.391 2.104-.51a13 13 0 0 1 1.958-.177c.297-.01.677.089.88.031c.203-.063.161-.198.219-.354c.172-.422.089-.802-.005-1.229c-.589-.073-1.208-.156-1.807-.109c-.583.042-1.276.323-1.88.339c-.521.021-1.297-.099-1.745-.375c-.552-.333-.979-1.052-1.13-1.286c-.245-.375-.552-1.115-.745-1.448c-.188-.339-.229-.432-.385-.573s-.37-.151-.557-.229c.214.021.448-.047.641.063c.297.172.62.865.802 1.172c.193-.651.151-.901.708-1.271c-.448.505-.464.891-.573 1.484c.375.609.896 1.589 1.573 1.859c.25.099.672.161.938.193c.828.104 1.625-.156 2.438-.359c.589-.146 1.193-.089 1.917-.047c.245.016.818-.13.943-.375a.46.46 0 0 0-.031-.443c-.094-.141-.344-.208-.474-.339c-.135-.13-.208-.281-.318-.417a8.5 8.5 0 0 1-1.411.151c.292-.12.573-.188.88-.307c.313-.13.615-.292.901-.474c.245-.167.401-.26.583-.448c.177-.193.406-.385.536-.615c.135-.234.151-.495.161-.781c.005-.286-.005-.688-.12-.922c-.109-.229-.323-.297-.495-.349c-.167-.057-.286.083-.464.099c-.182.021-.344.13-.604.01a2.3 2.3 0 0 1-.823-.734c-.26-.365-.448-.964-.714-1.422c-.453-.797-1.026-1.536-1.568-2.271c-.047-.182-.115-.432-.141-.677c-.036-.432-.042-.875.089-1.292c.099-.323.25-.661.583-.792a.62.62 0 0 1 .422-.026c.12.042.24.177.193.333c-.052.172-.172.177-.25.266a.86.86 0 0 0-.245.438c.146-.005.349-.016.469.021c.161.036.307.146.391.37c-.193-.167-.286-.245-.521-.25c-.109-.005-.245.036-.359.052c-.047.146-.073.328-.135.443c-.068.109-.188.083-.234.214a1.3 1.3 0 0 0-.026.521zm1.656-.198a.6.6 0 0 1 .193.104c.094.073.219.141.292.307c.063.172.078.354.057.536c-.068-.021-.151-.01-.219-.068s-.104-.182-.193-.24c-.083-.057-.156-.042-.25-.057q.078.197.047.401c-.047.271-.208.411-.469.443c-.109.016-.292-.021-.391-.042c.047.104.125.193.172.297c.219-.031.38-.031.5-.083c.115-.057.245-.182.391-.229c.151-.052.286-.052.453-.078c-.13.109-.214.219-.344.333l.281.833c.203.125.396.193.651.349s.557.438.891.589s.531.234.875.297c.349.068.625.349.964.396a8 8 0 0 0 1.245.031c.297-.031.688-.182.724-.51c-.255.057-.635.005-.828-.469c-.083-.208-.047-.594-.177-.839c-.13-.25-.313-.328-.531-.635c-.219-.302-.573-.786-.776-1.193c-.198-.411-.25-.87-.417-1.24c-.167-.365-.422-.656-.625-.943c-.432-.615-.781-1.036-1.495-1.349c-.344-.146-.734-.188-1.094-.281c-.151.068-.359.135-.396.313a.7.7 0 0 0 .161.563c.208.219.526.458.646.807c.083.224.104.969.036 1.177c-.073.214-.24.339-.375.479zm.068 1.776c-.068.057-.115.115-.224.161c-.104.047-.25.057-.391.094c.198.307.406.62.594.948c.193.323.354.677.536 1.016c-.01-.193 0-.401-.026-.583c-.026-.177-.109-.339-.193-.615c-.083-.271-.182-.646-.297-1.021zm-5.334-6.787c-.026.302.026.776.089 1.078c.073.354.146.536.438.75c.526.396.859.328 1.271.557c.193.104.438.286.51.479c.068.193-.047.401-.198.484c.26.036.547-.255.427-.547c-.063-.146-.339-.214-.427-.365a.56.56 0 0 1-.047-.448c.073-.266.609-.516.797-.724c.292-.333.401-.604.24-1.026c-.229-.594-1.125-1.073-1.656-1.307c-.245-.109-.385-.115-.573-.172c.391.229.802.411 1 .922c.161.427.021.589.026.958c.005.177.229.26.333.37c.083.094.078.167.01.297a.34.34 0 0 0-.151-.266c-.146-.109-.313-.083-.391-.302c-.12-.328.12-.646-.151-1.016c-.198-.276-.469-.589-.833-.594c-.161 0-.323.021-.479.078l-.245-.297h-.005c-.495-.453-.833-.828-1.531-1.141c-.693-.307-1.036-.359-1.839-.339c-.792.016-1.583.083-2.51.88c-.922.797-3.307 3.849-3.885 4.234c-.573.385-.703.521-1.422.521c-.724 0-1.849-1.021-1.896-2.297c-.042-1.276-.057-1.729.828-3.266s2.49-2.01 3.682-2.167c1.193-.161 1.911.255 2.792.26c.88 0 1.75-.151 2.01-.849c-.125.073-.297.156-.771.13c-.474-.021-1.13-.573-1.87-.938c-.74-.37-1.557-.411-2.615-.432c-1.052-.021-2.37.063-3.672.766c-1.307.698-2.193 1.448-2.953 2.828c-.755 1.375-.87 2.5-.745 4.167c.12 1.667.635 2.911 1.625 4.13S3.9 14.37 5.687 14.594l.375-1.656l-.672.958l.021-1.068l-.609.75l-.266-1.021l-.49.818l-.245-1.135l-.714.573l.224-.938l-.943.104l.432-.656l-.859.01l.5-.875l-.76-.12l.609-.797l-.932-.271l.771-.74l-.766-.625l.599-.464l-.563-.745l.599-.693l-.224-.917l.505-.438l.151-1.047l.568-.286l.49-.813l.901-.099l.448-.734l.906.047l.854-.464l.891.203l1.005-.302l.75.172l.974.146l.943.75l-1.443-.5l-.724.344l-.604-.365l-.411.281l-.734.073l-.656-.036l-.474.578l-.979.01l-.344.786l-.87.302l-.078.906l-.625.484l.208.854l-.536.88l.411.776l-.406.708l.542.349l-.12 1.141l.75.188l.167.844l.818-.083l.505.578l.63-.615c1.141-.573 1.615-.891 2.505-1.854c1.016-1.099 1.599-2.115 2.948-2.865c.969-.542 1.76-.734 2.849-.542c1.021.172 1.365.786 2.12 1.432c.083-.146.094-.182.229-.292c-.042.193-.109.385-.125.568z"/></svg>