<svg xmlns="http://www.w3.org/2000/svg" viewBox="0 0 256 256"><path fill="#932279" d="m107.86 118.641l9.229 9.177l-9.229 9.175H42.901v30.571L3.286 127.818l39.615-39.08v29.903zm28.554-78.068h78.929v78.93h-78.929z"/><path fill="#efa724" d="m137.275 107.86l-9.175 9.229l-9.175-9.229V42.901H88.352L128.1 3.286l39.077 39.615h-29.902zm-.86 28.554h78.928v78.93h-78.929z"/><path fill="#262577" d="m148.057 137.275l-9.23-9.175l9.23-9.175h64.958V88.352l39.617 39.748l-39.617 39.077v-29.902zm-107.484-.86h78.929v78.93H40.573z"/><path fill="#9ccd2a" d="m118.641 148.057l9.175-9.23l9.177 9.23v64.96h30.571l-39.748 39.615l-39.076-39.615h29.901zM40.573 40.573h78.929v78.93H40.573z"/><path fill="#fff" d="M37.754 37.754h84.567v84.567H37.754zm5.637 78.93h73.291V43.393H43.391zm90.206-78.93h84.567v84.567h-84.567zm5.637 78.93h73.291V43.393h-73.291zm-5.637 16.913h84.567v84.569h-84.567zm5.637 78.928h73.291v-73.291h-73.291zm-101.48-78.928h84.567v84.569H37.754zm5.637 78.928h73.291v-73.291H43.391z"/><path fill="#fff" d="m60.188 187.758l-59.8-59.8L60.187 68.16l59.8 59.798zm-51.826-59.8l51.826 51.826l51.824-51.826l-51.826-51.824zm119.596-7.972L68.16 60.188l59.798-59.8l59.798 59.8zM76.134 60.188l51.824 51.824l51.826-51.824l-51.826-51.826zm119.596 127.57l-59.798-59.8L195.73 68.16l59.798 59.798zm-51.826-59.8l51.826 51.826l51.824-51.826l-51.824-51.824zm-15.946 127.57L68.16 195.73l59.798-59.798l59.798 59.798zM76.134 195.73l51.824 51.824l51.826-51.824l-51.826-51.824z"/></svg>